<?xml version="1.0" encoding="UTF-8"?>
<!-- Generator: Adobe Illustrator 17.0.0, SVG Export Plug-In . SVG Version: 6.00 Build 0)  -->
<!DOCTYPE svg PUBLIC "-//W3C//DTD SVG 1.1//EN" "http://www.w3.org/Graphics/SVG/1.1/DTD/svg11.dtd">
<svg version="1.1" id="Layer_1" xmlns="http://www.w3.org/2000/svg" xmlns:xlink="http://www.w3.org/1999/xlink" x="0px" y="0px" width="1024px" height="1024px" viewBox="0 0 1024 1024" enable-background="new 0 0 1024 1024" xml:space="preserve">
<path fill="#FCBB1D" d="M0.603,510.077h511.796l-361.55-361.55C58.083,241.084,0.603,368.992,0.603,510.077"/>
<path fill="#EF851D" d="M512.399,0.492c-140.465,0.115-267.843,57.2-360.236,149.349l360.236,360.236V0.492"/>
<path fill="#DD4B39" d="M512.399,0.487v509.591l360.446-360.446C780.375,57.514,652.925,0.487,512.401,0.487"/>
<path fill="#7E3794" d="M1023.782,510.077c-0.376-140.786-57.977-268.362-150.729-360.654L512.399,510.077H1023.782"/>
<path fill="#427FED" d="M1023.36,510.077H512.399L874.23,871.908c92.119-92.469,149.148-219.921,149.148-360.446"/>
<path fill="#43459D" d="M512.401,1022.439c141.228,0,269.25-57.6,361.829-150.531L512.399,510.077v512.362"/>
<path fill="#65B045" d="M512.399,1022.439V510.077l-361.83,361.83C243.148,964.839,371.171,1022.439,512.399,1022.439"/>
<path fill="#1D8763" d="M1.422,511.462c0,140.525,57.028,267.976,149.147,360.445l361.83-361.83H1.44"/>
</svg>