<?xml version="1.0" encoding="UTF-8"?>
<!-- Generator: Adobe Illustrator 17.0.0, SVG Export Plug-In . SVG Version: 6.00 Build 0)  -->
<!DOCTYPE svg PUBLIC "-//W3C//DTD SVG 1.1//EN" "http://www.w3.org/Graphics/SVG/1.1/DTD/svg11.dtd">
<svg version="1.1" id="Layer_1" xmlns="http://www.w3.org/2000/svg" xmlns:xlink="http://www.w3.org/1999/xlink" x="0px" y="0px" width="1024px" height="1024px" viewBox="0 0 1024 1024" enable-background="new 0 0 1024 1024" xml:space="preserve">
<path fill="#FCBB1D" d="M63.65,509.381c0-60.524,11.863-119.258,35.258-174.571c22.568-53.357,54.861-101.272,95.979-142.419  l-43.212-43.212C58.874,241.371,1.249,368.922,0.692,509.937h62.965C63.656,509.751,63.65,509.567,63.65,509.381z"/>
<path fill="#EF851D" d="M195.497,192.831c41.172-41.172,89.128-73.503,142.535-96.091c55.261-23.373,113.937-35.234,174.401-35.256  V0.576c-0.11,0-0.219-0.002-0.328-0.002c-140.618,0-267.976,56.757-360.43,148.605l43.739,43.739  C195.442,192.889,195.469,192.86,195.497,192.831z"/>
<path fill="#DD4B39" d="M512.434,61.482c60.524,0,119.259,11.863,174.571,35.258c53.406,22.589,101.362,54.919,142.534,96.091  c0,0,0,0,0,0l43.326-43.326C780.457,57.536,653.088,0.664,512.433,0.576L512.434,61.482L512.434,61.482z"/>
<path fill="#7E3794" d="M829.708,192.831c41.172,41.173,73.503,89.129,96.092,142.535c23.395,55.313,35.257,114.047,35.257,174.571  v0h62.461c-0.557-140.848-58.045-268.265-150.653-360.432l-43.243,43.243C829.651,192.776,829.68,192.803,829.708,192.831z"/>
<path fill="#427FED" d="M1023.518,509.937h-62.63c0,60.524-11.863,119.258-35.257,174.57  c-22.589,53.407-54.919,101.362-96.092,142.535l45.387,45.387c91.848-92.454,148.605-219.812,148.605-360.43  C1023.531,511.311,1023.521,510.625,1023.518,509.937z"/>
<path fill="#43459D" d="M829.539,827.043c-41.172,41.172-89.128,73.503-142.534,96.092  c-55.312,23.395-114.047,35.257-174.571,35.257h-0.001v65.032c141.704-0.089,269.922-57.813,362.493-150.994L829.539,827.043  L829.539,827.043z"/>
<path fill="#65B045" d="M337.863,923.135c-53.407-22.589-101.363-54.92-142.535-96.092c0,0,0,0,0,0l-45.718,45.718  c92.618,93.06,220.827,150.666,362.495,150.666c0.11,0,0.219-0.002,0.328-0.002v-65.032  C451.909,958.392,393.176,946.53,337.863,923.135z"/>
<path fill="#1D8763" d="M99.236,684.508c-23.395-55.312-35.258-114.046-35.258-174.57H0.692c-0.003,0.688-0.013,1.374-0.013,2.063  c0,140.785,56.89,268.28,148.931,360.761l45.718-45.718C154.155,785.869,121.825,737.915,99.236,684.508z"/>
</svg>